<svg id="Layer_3" data-name="Layer 3" xmlns="http://www.w3.org/2000/svg" viewBox="0 0 460 296.44"><defs><style>.cls-1{fill:#0b1033;}</style></defs><title>mg_logo_white</title><path class="cls-1" d="M439.7,378s-5-93.45,80.61-97c0,0,68.28-1.35,77.32,50h31.66s-11.61-77.68-108.64-79.36c0,0-111.59-7.47-114.34,126.36Z" transform="translate(-170 -251.56)"/><polygon class="cls-1" points="313.78 281.69 319.13 281.69 316.45 267.53 313.78 281.69"/><polygon class="cls-1" points="84.22 281.69 89.57 281.69 86.89 267.53 84.22 281.69"/><path class="cls-1" d="M393.59,518.13h-2.67v8.6h2.16c2.07,0,3.33-.72,3.33-3V521C396.41,519,395.56,518.13,393.59,518.13Z" transform="translate(-170 -251.56)"/><path class="cls-1" d="M537,378v23h61v43.6c-21.11,31.73-72.59,32.71-72.59,32.71-79.49,0-85.81-75.31-85.81-75.31H404.86c14.74,97.42,99.44,101,99.44,101H399V252H350.7L310.23,379h30L367,295.62V503H300.43l29.06-102H302.55l-19.49,60.35L267.68,401H237l32.75,102H199V293.35L227.59,379h28.59L219.27,252H170.2L170,548H630V378ZM229.76,542.13h-5.25V522.05l-3.83,20.08h-5.25l-4.14-19.8v19.8h-4.84v-28h7.72L218.25,534,222,514.14h7.72Zm31.52,0-1-5.08h-6.81l-1,5.08h-5.09l5.65-28h8.12l5.65,28Zm30.72.32c-5.45,0-8.27-2.56-8.27-7v-1.72H289v2c0,2,1.11,2.72,2.88,2.72s2.87-.72,2.87-2.72c0-5.76-10.84-6.84-10.84-14.84,0-4.47,2.77-7,8.17-7s8.17,2.56,8.17,7v.88H295v-1.16c0-2-1-2.76-2.78-2.76s-2.77.77-2.77,2.76c0,5.76,10.84,6.84,10.84,14.84C300.27,539.89,297.45,542.45,292,542.45Zm42.12-24.32h-5.8v24h-5.55v-24H317v-4h17.15Zm32.69,0h-9.59v7.8h7.62v4h-7.62v8.2h9.59v4H351.67v-28h15.14Zm30.16,24a7,7,0,0,1-.51-3.44v-4.4c0-2.6-1.11-3.56-3.63-3.56h-1.91v11.4h-5.55v-28h8.37c5.75,0,8.22,2.11,8.22,6.43v2.2c0,2.88-1.16,4.76-3.63,5.68,2.78.92,3.68,3,3.68,6v4.32a6.64,6.64,0,0,0,.61,3.4Zm62.85-18.56h-5.25v-3c0-2-1.11-2.76-2.87-2.76s-2.88.77-2.88,2.76v15.12c0,2,1.11,2.72,2.88,2.72s2.87-.72,2.87-2.72v-5.16h-2.52v-4h7.77v8.88c0,4.48-2.82,7-8.27,7s-8.28-2.56-8.28-7V520.85c0-4.47,2.83-7,8.28-7s8.27,2.56,8.27,7Zm31,18.56-1-5.08h-6.81l-.95,5.08H477l5.65-28h8.12l5.65,28Zm46.56,0h-5.24V522.05l-3.84,20.08h-5.25l-4.13-19.8v19.8H514.1v-28h7.71L525.9,534l3.78-19.87h7.72Zm34.3-24h-9.58v7.8h7.61v4h-7.61v8.2h9.58v4H556.57v-28H571.7Zm26,24.32c-5.45,0-8.28-2.56-8.28-7v-1.72h5.25v2c0,2,1.11,2.72,2.88,2.72s2.87-.72,2.87-2.72c0-5.76-10.84-6.84-10.84-14.84,0-4.47,2.77-7,8.17-7s8.17,2.56,8.17,7v.88h-5.25v-1.16c0-2-1-2.76-2.77-2.76s-2.78.77-2.78,2.76c0,5.76,10.85,6.84,10.85,14.84C606,539.89,603.13,542.45,597.68,542.45Zm-58.24-39.8,23-5.93c7.53-2,19.58-8.55,25.69-13.38l10.37-9.58,8.62,28.89Z" transform="translate(-170 -251.56)"/></svg>